<?xml version="1.0" encoding="UTF-8" standalone="no"?>
<!DOCTYPE svg PUBLIC "-//W3C//DTD SVG 1.1//EN" "http://www.w3.org/Graphics/SVG/1.1/DTD/svg11.dtd">
<svg xmlns="http://www.w3.org/2000/svg" version="1.1" viewBox="0.00 0.00 213.00 300.00">
<path fill="#ffffff" d="
  M 30.50 240.50
  L 166.00 240.50
  Q 167.00 240.50 167.00 239.50
  L 167.00 227.87
  Q 167.00 227.25 167.63 227.25
  L 173.21 227.25
  Q 173.74 227.25 173.74 227.78
  Q 173.77 240.26 173.76 252.72
  C 173.74 267.86 168.56 275.01 152.70 275.00
  Q 99.14 274.99 45.57 275.00
  C 35.72 275.01 28.13 273.61 24.42 264.28
  Q 23.00 260.70 23.00 253.01
  Q 23.01 150.41 22.99 47.82
  C 22.99 37.64 24.38 29.45 34.20 25.84
  Q 37.89 24.48 46.96 24.49
  Q 97.50 24.51 148.04 24.50
  C 159.54 24.49 168.28 24.87 172.47 35.69
  Q 173.78 39.08 173.76 45.49
  Q 173.70 59.96 173.79 74.43
  Q 173.80 75.00 173.23 75.00
  L 167.42 75.00
  A 0.58 0.57 0.5 0 1 166.84 74.42
  L 167.06 62.54
  Q 167.09 61.25 165.79 61.25
  L 30.87 61.25
  Q 30.00 61.25 30.00 62.13
  L 30.00 240.00
  Q 30.00 240.50 30.50 240.50
  Z
  M 30.58 54.30
  L 166.20 54.30
  A 0.83 0.83 0.0 0 0 167.03 53.47
  L 167.03 43.40
  A 12.17 11.98 -0.0 0 0 154.86 31.42
  L 41.92 31.42
  A 12.17 11.98 0.0 0 0 29.75 43.40
  L 29.75 53.47
  A 0.83 0.83 0.0 0 0 30.58 54.30
  Z
  M 166.17 247.25
  L 30.69 247.25
  A 0.87 0.87 0.0 0 0 29.82 248.12
  L 29.82 256.83
  A 11.61 11.24 0.0 0 0 41.43 268.07
  L 155.43 268.07
  A 11.61 11.24 0.0 0 0 167.04 256.83
  L 167.04 248.12
  A 0.87 0.87 0.0 0 0 166.17 247.25
  Z"
/>
<rect fill="#ffffff" x="-21.05" y="-3.40" transform="translate(98.45,43.70) rotate(0.6)" width="42.10" height="6.80" rx="3.32"/>
<rect fill="#ffffff" x="-5.50" y="-5.50" transform="translate(44.25,75.75) rotate(-0.1)" width="11.00" height="11.00" rx="0.43"/>
<rect fill="#ffffff" x="-5.50" y="-5.49" transform="translate(59.38,75.75) rotate(0.1)" width="11.00" height="10.98" rx="0.45"/>
<rect fill="#ffffff" x="-5.50" y="-5.50" transform="translate(44.25,91.00) rotate(-0.1)" width="11.00" height="11.00" rx="0.52"/>
<path fill="#ffffff" d="
  M 100.99 158.72
  Q 139.36 158.83 177.76 158.70
  Q 191.39 158.65 192.88 170.21
  C 194.32 181.34 191.39 190.35 178.59 190.49
  Q 139.83 190.92 101.08 190.69
  Q 100.50 190.69 100.50 191.26
  L 100.50 201.25
  A 0.50 0.50 0.0 0 1 100.00 201.75
  L 93.60 201.75
  A 0.66 0.66 0.0 0 1 92.94 201.09
  L 92.91 93.60
  Q 92.91 93.12 93.40 93.13
  L 99.76 93.25
  A 0.75 0.75 0.0 0 1 100.50 94.00
  L 100.50 105.74
  Q 100.50 106.25 101.00 106.25
  Q 132.48 106.26 163.93 106.25
  Q 167.10 106.25 169.88 107.29
  C 175.35 109.35 198.00 117.05 191.91 126.19
  C 188.41 131.43 169.56 138.00 163.38 138.00
  Q 132.20 137.99 101.01 138.00
  Q 100.50 138.00 100.50 138.51
  L 100.50 158.22
  Q 100.50 158.72 100.99 158.72
  Z
  M 187.21 121.24
  C 183.48 117.49 173.43 113.72 168.25 112.03
  Q 167.50 111.78 167.50 112.57
  L 167.50 131.91
  A 0.52 0.52 0.0 0 0 168.17 132.41
  Q 177.90 129.59 186.72 124.71
  A 2.20 2.19 53.2 0 0 187.21 121.24
  Z
  M 107.9836 112.7635
  A 0.27 0.27 0.0 0 0 107.7132 112.4939
  L 100.7332 112.5061
  A 0.27 0.27 0.0 0 0 100.4636 112.7766
  L 100.4964 131.5365
  A 0.27 0.27 0.0 0 0 100.7668 131.8061
  L 107.7468 131.7939
  A 0.27 0.27 0.0 0 0 108.0164 131.5234
  L 107.9836 112.7635
  Z
  M 118.25 112.93
  A 0.43 0.43 0.0 0 0 117.82 112.50
  L 113.18 112.50
  A 0.43 0.43 0.0 0 0 112.75 112.93
  L 112.75 131.31
  A 0.43 0.43 0.0 0 0 113.18 131.74
  L 117.82 131.74
  A 0.43 0.43 0.0 0 0 118.25 131.31
  L 118.25 112.93
  Z
  M 161.4840 112.9664
  A 0.50 0.50 0.0 0 0 160.9832 112.4673
  L 123.5032 112.5327
  A 0.50 0.50 0.0 0 0 123.0041 113.0336
  L 123.0360 131.2936
  A 0.50 0.50 0.0 0 0 123.5368 131.7927
  L 161.0168 131.7273
  A 0.50 0.50 0.0 0 0 161.5159 131.2264
  L 161.4840 112.9664
  Z
  M 170.37 178.23
  L 170.30 164.02
  Q 170.29 163.50 169.77 163.50
  L 164.71 163.50
  Q 164.10 163.50 164.10 164.11
  L 164.03 172.80
  Q 164.03 173.31 163.52 173.30
  L 159.98 173.23
  Q 159.50 173.22 159.50 172.73
  L 159.50 164.42
  A 0.60 0.60 0.0 0 0 158.93 163.82
  L 154.54 163.59
  A 0.60 0.60 0.0 0 0 153.91 164.20
  L 154.04 178.31
  Q 154.05 178.98 153.38 178.99
  L 149.78 179.01
  A 0.79 0.79 0.0 0 1 148.99 178.22
  L 149.03 164.16
  Q 149.03 163.79 148.66 163.78
  L 144.23 163.68
  Q 143.70 163.67 143.70 164.20
  L 143.76 172.80
  A 0.59 0.59 0.0 0 1 143.13 173.40
  L 139.33 173.18
  Q 138.75 173.15 138.75 172.57
  L 138.75 164.55
  Q 138.75 163.84 138.05 163.81
  L 133.74 163.60
  A 0.47 0.47 0.0 0 0 133.25 164.07
  L 133.25 178.50
  Q 133.25 179.00 132.75 179.00
  L 129.38 179.00
  A 0.88 0.87 0.0 0 1 128.50 178.13
  L 128.50 164.24
  Q 128.50 163.66 127.93 163.67
  L 123.53 163.72
  Q 123.04 163.73 123.04 164.22
  L 123.07 172.43
  Q 123.07 173.25 122.26 173.25
  L 118.88 173.25
  Q 118.25 173.25 118.25 172.62
  L 118.25 164.30
  Q 118.25 163.84 117.79 163.81
  L 113.21 163.59
  Q 112.75 163.57 112.75 164.03
  L 112.75 178.28
  A 0.54 0.54 0.0 0 1 112.22 178.82
  L 108.63 178.92
  A 0.61 0.60 -0.9 0 1 108.00 178.32
  L 108.00 164.27
  Q 108.00 163.80 107.52 163.79
  L 101.05 163.66
  Q 100.50 163.65 100.50 164.20
  L 100.50 185.23
  Q 100.50 185.74 101.01 185.74
  Q 139.29 185.77 177.57 185.74
  C 188.27 185.73 189.53 179.05 187.93 170.01
  C 186.89 164.15 180.78 163.05 175.87 163.53
  A 0.88 0.87 -3.5 0 0 175.08 164.42
  L 175.32 178.24
  A 0.79 0.79 0.0 0 1 174.50 179.04
  L 171.03 178.90
  Q 170.38 178.88 170.37 178.23
  Z"
/>
<rect fill="#ffffff" x="-21.07" y="-3.44" transform="translate(99.89,258.15) rotate(0.6)" width="42.14" height="6.88" rx="3.36"/>
</svg>
